<svg xmlns="http://www.w3.org/2000/svg" width="76" height="41" viewBox="0 0 76 41">
    <g fill="none" fill-rule="evenodd" stroke="#333" stroke-linecap="round" stroke-linejoin="round" stroke-width="1.5">
        <path d="M52.389 10.858h14.389l7.994 12.839v9.629H66.5"/>
        <path d="M34.525 33.326h17.9l-.036-32.097H36.402"/>
        <path d="M24.063 33.51l-6.847-.184.057-32.097h25.703M66.778 34.93c0 2.658-2.146 4.815-4.797 4.815-2.647 0-4.796-2.157-4.796-4.814 0-2.661 2.149-4.815 4.796-4.815 2.651 0 4.797 2.154 4.797 4.815zM34.802 34.93c0 2.658-2.145 4.815-4.796 4.815-2.647 0-4.796-2.157-4.796-4.814 0-2.661 2.149-4.815 4.796-4.815 2.65 0 4.796 2.154 4.796 4.815zM1.228 17.278l9.593.016M6.025 23.697l4.796.016M9.222 30.116l1.599.016M74.772 23.697H52.389M52.423 33.326h5.059"/>
    </g>
</svg>
