<svg xmlns="http://www.w3.org/2000/svg" width="50" height="37" viewBox="0 0 50 37">
    <path fill="#000" fill-rule="nonzero" stroke="#FFF" stroke-width=".5" d="M43.713 19.63c-4.78-5.807-12.046-9.606-22.28-9.988l-.241-.01v-8.38a1 1 0 0 0-1.636-.777L.619 16.053c-.23.189-.369.476-.369.765 0 .302.13.579.36.767L19.543 33.22a.991.991 0 0 0 1.066.131.99.99 0 0 0 .571-.905v-8.361h.251c5.74.023 9.708.422 13.746 1.732 5.463 1.772 9.754 5.038 12.698 10.219a1 1 0 0 0 1.13.473.994.994 0 0 0 .744-.963c.012-4.993-2.082-11.11-6.037-15.917zm0 0zm-23.529 2.457a1.004 1.004 0 0 0-1.008 1.005v7.233L2.838 16.828 19.187 3.374v7.232c0 .547.442.996.99 1.005 15.303.147 24.101 7.995 26.896 19l.255 1.007-.686-.781c-3.491-3.976-7.965-6.4-13.364-7.648-3.897-.901-7.126-1.102-13.094-1.102z"/>
</svg>
